<svg width="120" height="120" viewBox="0 0 120 120" fill="none" xmlns="http://www.w3.org/2000/svg">
<path d="M120 102.857V17.1429C120 7.71429 113.647 0 105.882 0H14.1176C6.35294 0 0 7.71429 0 17.1429V102.857C0 112.286 6.35294 120 14.1176 120H105.882C113.647 120 120 112.286 120 102.857ZM42.3529 94.2857V25.7143L84.7059 60L42.3529 94.2857Z" fill="#FF0000"/>
<path d="M120 102.857V17.1429C120 7.71429 113.647 0 105.882 0H14.1176C6.35294 0 0 7.71429 0 17.1429V102.857C0 112.286 6.35294 120 14.1176 120H105.882C113.647 120 120 112.286 120 102.857ZM42.3529 94.2857V25.7143L84.7059 60L42.3529 94.2857Z" fill="#FF0000"/>
<path d="M84.375 60L42.1875 95.7235L42.1875 24.2765L84.375 60Z" fill="white"/>
</svg>
